<svg xmlns="http://www.w3.org/2000/svg" viewBox="0 0 20 16.15"><defs><style>.cls-1{fill:#0f3374;}.cls-2{fill:#86d3f9;}</style></defs><g id="Layer_2" data-name="Layer 2"><g id="Layer_1-2" data-name="Layer 1"><path class="cls-1" d="M10,16.15H9.89a7.26,7.26,0,0,1-3.12-.85c-.4-.19-.75-.37-1.08-.55h0l-.15-.08A8,8,0,0,0,2.62,14a.31.31,0,0,1-.29-.33.32.32,0,0,1,.34-.29,8.33,8.33,0,0,1,3.14.71l.13.06,0,0H6c.33.18.68.36,1.07.55a6.7,6.7,0,0,0,2.87.78c.67,0,2.1-.31,5.12-2,1.6-.88,4.28-2.36,4.34-3,0,0,0-.1-.11-.2-.56-.46-2.58.6-4.2,1.46L14,12.35a.31.31,0,0,1-.42-.14.33.33,0,0,1,.14-.42l1.08-.55c2.15-1.14,4-2.11,4.89-1.39a.84.84,0,0,1,.34.73c-.08.86-1.51,1.79-4.67,3.52C12.87,15.46,11.06,16.15,10,16.15Z"/><path class="cls-1" d="M12.51,14a6.76,6.76,0,0,1-1.95-.5l-.68-.24a11.67,11.67,0,0,0-3.18-.78.31.31,0,0,1,0-.62,11.44,11.44,0,0,1,3.34.82l.68.23c.9.31,1.68.58,2,.42a.28.28,0,0,0,.14-.2c.15-.48-1.13-1.63-3-2.38A8.85,8.85,0,0,1,8.4,9.9a4.71,4.71,0,0,0-1.78-.83,5.39,5.39,0,0,0-2.4.33,14.7,14.7,0,0,1-1.51.42.31.31,0,1,1-.13-.61A14.26,14.26,0,0,0,4,8.8a6.18,6.18,0,0,1,2.69-.35,5,5,0,0,1,2,.93,8,8,0,0,0,1.38.77c1.55.62,3.72,2,3.37,3.14a.91.91,0,0,1-.46.58A1.08,1.08,0,0,1,12.51,14Z"/><path class="cls-1" d="M12.9,11.38a.31.31,0,0,1-.26-.14.31.31,0,0,1,.09-.43l.36-.23c1.29-.83,2.62-1.68,3.58-1.68h0a1.25,1.25,0,0,1,.95.32.31.31,0,1,1-.46.42.76.76,0,0,0-.49-.12h0a8.85,8.85,0,0,0-3.24,1.58l-.36.23A.26.26,0,0,1,12.9,11.38Z"/><path class="cls-1" d="M12.05,10.81a.3.3,0,0,1-.25-.12.32.32,0,0,1,.07-.44l.67-.51A4.92,4.92,0,0,1,14.77,8.5a1.41,1.41,0,0,1,.51,0,.31.31,0,0,1,.23.37.32.32,0,0,1-.37.24,1,1,0,0,0-.31,0,4.81,4.81,0,0,0-1.91,1.12l-.68.51A.27.27,0,0,1,12.05,10.81Z"/><path class="cls-1" d="M11.11,10.28a.3.3,0,0,1-.24-.12.32.32,0,0,1,0-.44,8.83,8.83,0,0,0,.66-.59,2.16,2.16,0,0,1,1.15-.7,2,2,0,0,1,.49,0,.32.32,0,0,1,.25.37.32.32,0,0,1-.37.25.83.83,0,0,0-.28,0c-.27,0-.43.19-.81.54-.18.17-.4.38-.69.62A.37.37,0,0,1,11.11,10.28Z"/><path class="cls-1" d="M2.46,14.87H.5a.5.5,0,0,1-.5-.5V9a.5.5,0,0,1,.5-.5h2A.51.51,0,0,1,3,9v5.38A.5.5,0,0,1,2.46,14.87ZM.63,14.25h1.7V9.12H.63Z"/><path class="cls-2" d="M9.87,9.71a.2.2,0,0,1-.14-.06L3.2,3.41a.21.21,0,0,1,0-.27L5.39.09A.2.2,0,0,1,5.56,0h8.62a.2.2,0,0,1,.17.09l2.16,3.05a.21.21,0,0,1,0,.27L10,9.65A.2.2,0,0,1,9.87,9.71ZM3.62,3.23l6.25,6,6.2-6-2-2.82H5.66Z"/><path class="cls-2" d="M16.34,3.46h-13a.2.2,0,0,1-.21-.2.21.21,0,0,1,.21-.21h13a.21.21,0,0,1,.21.21A.2.2,0,0,1,16.34,3.46Z"/><path class="cls-2" d="M7.11,3.46h0a.21.21,0,0,1-.16-.11L5.37.3A.21.21,0,0,1,5.46,0a.21.21,0,0,1,.28.09L7.16,2.9,9.69.07A.21.21,0,1,1,10,.34L7.27,3.4A.23.23,0,0,1,7.11,3.46Z"/><path class="cls-2" d="M9.88,9.71a.2.2,0,0,1-.19-.12L6.93,3.34a.2.2,0,1,1,.37-.16l2.76,6.24a.2.2,0,0,1-.1.27A.13.13,0,0,1,9.88,9.71Z"/><path class="cls-2" d="M12.62,3.46a.2.2,0,0,1-.15-.06L9.74.34a.21.21,0,0,1,0-.29.21.21,0,0,1,.29,0L12.57,2.9,14,.11A.2.2,0,0,1,14.27,0a.21.21,0,0,1,.09.28L12.8,3.35a.21.21,0,0,1-.15.11Z"/><path class="cls-2" d="M9.87,9.71a.13.13,0,0,1-.08,0,.2.2,0,0,1-.1-.27l2.74-6.24a.21.21,0,1,1,.38.16L10.06,9.59A.2.2,0,0,1,9.87,9.71Z"/></g></g></svg>