<svg xmlns="http://www.w3.org/2000/svg" viewBox="0 0 20 21.62"><defs><style>.cls-1{fill:#0f3374;}.cls-2{fill:#86d3f9;}</style></defs><g id="Layer_2" data-name="Layer 2"><g id="Layer_1-2" data-name="Layer 1"><path class="cls-1" d="M10,21.62a.27.27,0,0,1-.12,0L.19,16A.47.47,0,0,1,0,15.58a.46.46,0,0,1,.21-.41l7.63-3.88c.16-.08.34,0,.4.26a.5.5,0,0,1-.18.56l-6.88,3.5L10,20.71l8.82-5.1-5.9-3a.49.49,0,0,1-.19-.56c.06-.23.24-.35.4-.26l6.66,3.38a.46.46,0,0,1,.21.41.47.47,0,0,1-.19.41l-9.69,5.6A.27.27,0,0,1,10,21.62Z"/><path class="cls-2" d="M13.24,2.41a1.1,1.1,0,0,1-1.1-1.1,1.1,1.1,0,1,1,1.1,1.1Zm0-1.32a.22.22,0,0,0-.22.22.22.22,0,0,0,.44,0A.22.22,0,0,0,13.24,1.09Z"/><path class="cls-2" d="M8.61,17.13a1.21,1.21,0,1,1,1.21-1.21A1.21,1.21,0,0,1,8.61,17.13Zm0-1.55a.34.34,0,0,0-.33.34.34.34,0,1,0,.67,0A.34.34,0,0,0,8.61,15.58Z"/><path class="cls-2" d="M3.15,11.9A1.8,1.8,0,1,1,5,10.1,1.8,1.8,0,0,1,3.15,11.9Zm0-2.72a.92.92,0,1,0,0,1.84.92.92,0,1,0,0-1.84Z"/><path class="cls-2" d="M7.13,7.35h0A.43.43,0,0,1,6.7,7L6.44,5.2a1,1,0,0,0-.7-.8l-1-.31a.43.43,0,0,1,0-.83l1-.3a1,1,0,0,0,.7-.81L6.7.37a.43.43,0,0,1,.86,0l.26,1.78a1,1,0,0,0,.7.81l1,.3a.43.43,0,0,1,0,.83l-1,.31a1,1,0,0,0-.7.8L7.56,7A.43.43,0,0,1,7.13,7.35ZM6.29,3.68a1.87,1.87,0,0,1,.84.85A1.87,1.87,0,0,1,8,3.68a2,2,0,0,1-.84-.85A2,2,0,0,1,6.29,3.68Z"/><path class="cls-2" d="M11.22,14.9a.44.44,0,0,1-.43-.38l-.42-2.83A1.84,1.84,0,0,0,9.09,10.2L7.51,9.72a.43.43,0,0,1,0-.83l1.58-.48a1.84,1.84,0,0,0,1.28-1.49l.42-2.83a.43.43,0,0,1,.43-.37.44.44,0,0,1,.44.37l.41,2.83a1.86,1.86,0,0,0,1.29,1.49l1.58.48a.43.43,0,0,1,0,.83l-1.58.48a1.86,1.86,0,0,0-1.29,1.49l-.41,2.83A.45.45,0,0,1,11.22,14.9ZM9.14,9.31l.2.06a2.71,2.71,0,0,1,1.88,2.1,2.72,2.72,0,0,1,1.88-2.1l.21-.06-.21-.07a2.72,2.72,0,0,1-1.88-2.1,2.71,2.71,0,0,1-1.88,2.1Z"/></g></g></svg>